{
    "asset" : {
        "generator" : "Khronos glTF Blender I/O v1.6.16",
        "version" : "2.0"
    },
    "scene" : 0,
    "scenes" : [
        {
            "extras" : {
                "blenderkitUI" : {
                    "assetbar_on" : 0,
                    "turn_off" : 0
                },
                "blosm" : {
                    "defaultLevels" : [
                        {
                            "levels" : 4,
                            "weight" : 10
                        },
                        {
                            "levels" : 5,
                            "weight" : 40
                        },
                        {
                            "levels" : 6,
                            "weight" : 10
                        }
                    ]
                },
                "uuid" : "d30dcbe9-e8a2-4e66-9507-0bb1a6b9895c"
            },
            "name" : "Scene",
            "nodes" : [
                0
            ]
        }
    ],
    "nodes" : [
        {
            "mesh" : 0,
            "name" : "enter_popup",
            "scale" : [
                0.21047312021255493,
                0.21047312021255493,
                0.21047312021255493
            ],
            "translation" : [
                0,
                -2.562688112258911,
                0
            ]
        }
    ],
    "animations" : [
        {
            "channels" : [
                {
                    "sampler" : 0,
                    "target" : {
                        "node" : 0,
                        "path" : "translation"
                    }
                },
                {
                    "sampler" : 1,
                    "target" : {
                        "node" : 0,
                        "path" : "scale"
                    }
                }
            ],
            "name" : "enter_popupAction",
            "samplers" : [
                {
                    "input" : 12,
                    "interpolation" : "LINEAR",
                    "output" : 13
                },
                {
                    "input" : 14,
                    "interpolation" : "LINEAR",
                    "output" : 15
                }
            ]
        }
    ],
    "materials" : [
        {
            "doubleSided" : true,
            "name" : "red",
            "pbrMetallicRoughness" : {
                "baseColorFactor" : [
                    0.8000000715255737,
                    0.011330433189868927,
                    0.009501035325229168,
                    1
                ],
                "metallicFactor" : 0,
                "roughnessFactor" : 0.5
            }
        },
        {
            "doubleSided" : true,
            "name" : "white",
            "pbrMetallicRoughness" : {
                "metallicFactor" : 0,
                "roughnessFactor" : 0.5
            }
        },
        {
            "doubleSided" : true,
            "name" : "dark_red",
            "pbrMetallicRoughness" : {
                "baseColorFactor" : [
                    0.1626414805650711,
                    0.0040705385617911816,
                    0.0036061699502170086,
                    1
                ],
                "metallicFactor" : 0,
                "roughnessFactor" : 0.5
            }
        }
    ],
    "meshes" : [
        {
            "name" : "Cube.001",
            "primitives" : [
                {
                    "attributes" : {
                        "POSITION" : 0,
                        "NORMAL" : 1,
                        "TEXCOORD_0" : 2
                    },
                    "indices" : 3,
                    "material" : 0
                },
                {
                    "attributes" : {
                        "POSITION" : 4,
                        "NORMAL" : 5,
                        "TEXCOORD_0" : 6
                    },
                    "indices" : 7,
                    "material" : 1
                },
                {
                    "attributes" : {
                        "POSITION" : 8,
                        "NORMAL" : 9,
                        "TEXCOORD_0" : 10
                    },
                    "indices" : 11,
                    "material" : 2
                }
            ]
        }
    ],
    "accessors" : [
        {
            "bufferView" : 0,
            "componentType" : 5126,
            "count" : 438,
            "max" : [
                1,
                1.7680540084838867,
                0.22792023420333862
            ],
            "min" : [
                -1,
                0.42800894379615784,
                -0.22792023420333862
            ],
            "type" : "VEC3"
        },
        {
            "bufferView" : 1,
            "componentType" : 5126,
            "count" : 438,
            "type" : "VEC3"
        },
        {
            "bufferView" : 2,
            "componentType" : 5126,
            "count" : 438,
            "type" : "VEC2"
        },
        {
            "bufferView" : 3,
            "componentType" : 5123,
            "count" : 2112,
            "type" : "SCALAR"
        },
        {
            "bufferView" : 4,
            "componentType" : 5126,
            "count" : 1548,
            "max" : [
                0.8344873189926147,
                1.4428956508636475,
                0.27478018403053284
            ],
            "min" : [
                -0.77042555809021,
                1.0672777891159058,
                0.21970424056053162
            ],
            "type" : "VEC3"
        },
        {
            "bufferView" : 5,
            "componentType" : 5126,
            "count" : 1548,
            "type" : "VEC3"
        },
        {
            "bufferView" : 6,
            "componentType" : 5126,
            "count" : 1548,
            "type" : "VEC2"
        },
        {
            "bufferView" : 7,
            "componentType" : 5123,
            "count" : 3366,
            "type" : "SCALAR"
        },
        {
            "bufferView" : 8,
            "componentType" : 5126,
            "count" : 122,
            "max" : [
                1,
                1.7680540084838867,
                0.22792023420333862
            ],
            "min" : [
                -1,
                0.7466371655464172,
                -0.22792023420333862
            ],
            "type" : "VEC3"
        },
        {
            "bufferView" : 9,
            "componentType" : 5126,
            "count" : 122,
            "type" : "VEC3"
        },
        {
            "bufferView" : 10,
            "componentType" : 5126,
            "count" : 122,
            "type" : "VEC2"
        },
        {
            "bufferView" : 11,
            "componentType" : 5123,
            "count" : 612,
            "type" : "SCALAR"
        },
        {
            "bufferView" : 12,
            "componentType" : 5126,
            "count" : 17,
            "max" : [
                0.6666666666666666
            ],
            "min" : [
                0
            ],
            "type" : "SCALAR"
        },
        {
            "bufferView" : 13,
            "componentType" : 5126,
            "count" : 17,
            "type" : "VEC3"
        },
        {
            "bufferView" : 14,
            "componentType" : 5126,
            "count" : 11,
            "max" : [
                0.4166666666666667
            ],
            "min" : [
                0
            ],
            "type" : "SCALAR"
        },
        {
            "bufferView" : 15,
            "componentType" : 5126,
            "count" : 11,
            "type" : "VEC3"
        }
    ],
    "bufferViews" : [
        {
            "buffer" : 0,
            "byteLength" : 5256,
            "byteOffset" : 0
        },
        {
            "buffer" : 0,
            "byteLength" : 5256,
            "byteOffset" : 5256
        },
        {
            "buffer" : 0,
            "byteLength" : 3504,
            "byteOffset" : 10512
        },
        {
            "buffer" : 0,
            "byteLength" : 4224,
            "byteOffset" : 14016
        },
        {
            "buffer" : 0,
            "byteLength" : 18576,
            "byteOffset" : 18240
        },
        {
            "buffer" : 0,
            "byteLength" : 18576,
            "byteOffset" : 36816
        },
        {
            "buffer" : 0,
            "byteLength" : 12384,
            "byteOffset" : 55392
        },
        {
            "buffer" : 0,
            "byteLength" : 6732,
            "byteOffset" : 67776
        },
        {
            "buffer" : 0,
            "byteLength" : 1464,
            "byteOffset" : 74508
        },
        {
            "buffer" : 0,
            "byteLength" : 1464,
            "byteOffset" : 75972
        },
        {
            "buffer" : 0,
            "byteLength" : 976,
            "byteOffset" : 77436
        },
        {
            "buffer" : 0,
            "byteLength" : 1224,
            "byteOffset" : 78412
        },
        {
            "buffer" : 0,
            "byteLength" : 68,
            "byteOffset" : 79636
        },
        {
            "buffer" : 0,
            "byteLength" : 204,
            "byteOffset" : 79704
        },
        {
            "buffer" : 0,
            "byteLength" : 44,
            "byteOffset" : 79908
        },
        {
            "buffer" : 0,
            "byteLength" : 132,
            "byteOffset" : 79952
        }
    ],
    "buffers" : [
        {
            "byteLength" : 80084,
            "uri" : "data:application/octet-stream;base64,"
        }
    ]
}
