{
    "asset" : {
        "generator" : "Khronos glTF Blender I/O v1.6.16",
        "version" : "2.0"
    },
    "scene" : 0,
    "scenes" : [
        {
            "extras" : {
                "blenderkitUI" : {
                    "assetbar_on" : 0,
                    "turn_off" : 0
                },
                "blosm" : {
                    "defaultLevels" : [
                        {
                            "levels" : 4,
                            "weight" : 10
                        },
                        {
                            "levels" : 5,
                            "weight" : 40
                        },
                        {
                            "levels" : 6,
                            "weight" : 10
                        }
                    ]
                },
                "uuid" : "bafcfd6e-902b-4897-889b-88944be35ca0"
            },
            "name" : "Scene",
            "nodes" : [
                0
            ]
        }
    ],
    "nodes" : [
        {
            "mesh" : 0,
            "name" : "booth",
            "scale" : [
                0.30454790592193604,
                0.37722474336624146,
                0.30454790592193604
            ],
            "translation" : [
                0,
                -1.0750296115875244,
                0
            ]
        }
    ],
    "animations" : [
        {
            "channels" : [
                {
                    "sampler" : 0,
                    "target" : {
                        "node" : 0,
                        "path" : "translation"
                    }
                }
            ],
            "name" : "boothAction",
            "samplers" : [
                {
                    "input" : 12,
                    "interpolation" : "LINEAR",
                    "output" : 13
                }
            ]
        }
    ],
    "materials" : [
        {
            "doubleSided" : true,
            "name" : "base",
            "pbrMetallicRoughness" : {
                "baseColorFactor" : [
                    0.800000011920929,
                    0.800000011920929,
                    0.800000011920929,
                    1
                ],
                "metallicFactor" : 0,
                "roughnessFactor" : 0.5
            }
        },
        {
            "doubleSided" : true,
            "name" : "spanduk_tex",
            "pbrMetallicRoughness" : {
                "metallicFactor" : 0,
                "roughnessFactor" : 0.5
            }
        },
        {
            "doubleSided" : true,
            "name" : "red",
            "pbrMetallicRoughness" : {
                "baseColorFactor" : [
                    0.8000000715255737,
                    0.020694591104984283,
                    0.037109412252902985,
                    1
                ],
                "metallicFactor" : 0,
                "roughnessFactor" : 0.5
            }
        }
    ],
    "meshes" : [
        {
            "name" : "Cube.001",
            "primitives" : [
                {
                    "attributes" : {
                        "POSITION" : 0,
                        "NORMAL" : 1,
                        "TEXCOORD_0" : 2
                    },
                    "indices" : 3,
                    "material" : 0
                },
                {
                    "attributes" : {
                        "POSITION" : 4,
                        "NORMAL" : 5,
                        "TEXCOORD_0" : 6
                    },
                    "indices" : 7,
                    "material" : 1
                },
                {
                    "attributes" : {
                        "POSITION" : 8,
                        "NORMAL" : 9,
                        "TEXCOORD_0" : 10
                    },
                    "indices" : 11,
                    "material" : 2
                }
            ]
        }
    ],
    "accessors" : [
        {
            "bufferView" : 0,
            "componentType" : 5126,
            "count" : 98,
            "max" : [
                1.2053807973861694,
                2,
                2.191995620727539
            ],
            "min" : [
                -1.2053807973861694,
                0,
                -1.2053807973861694
            ],
            "type" : "VEC3"
        },
        {
            "bufferView" : 1,
            "componentType" : 5126,
            "count" : 98,
            "type" : "VEC3"
        },
        {
            "bufferView" : 2,
            "componentType" : 5126,
            "count" : 98,
            "type" : "VEC2"
        },
        {
            "bufferView" : 3,
            "componentType" : 5123,
            "count" : 162,
            "type" : "SCALAR"
        },
        {
            "bufferView" : 4,
            "componentType" : 5126,
            "count" : 8,
            "max" : [
                0.7775696516036987,
                1.8197438716888428,
                2.191995620727539
            ],
            "min" : [
                0.7775696516036987,
                1.0021159648895264,
                1.1792502403259277
            ],
            "type" : "VEC3"
        },
        {
            "bufferView" : 5,
            "componentType" : 5126,
            "count" : 8,
            "type" : "VEC3"
        },
        {
            "bufferView" : 6,
            "componentType" : 5126,
            "count" : 8,
            "type" : "VEC2"
        },
        {
            "bufferView" : 7,
            "componentType" : 5123,
            "count" : 12,
            "type" : "SCALAR"
        },
        {
            "bufferView" : 8,
            "componentType" : 5126,
            "count" : 60,
            "max" : [
                1.2053807973861694,
                2.175111770629883,
                1.2053807973861694
            ],
            "min" : [
                -1.2053807973861694,
                0.008196651935577393,
                -1.2053807973861694
            ],
            "type" : "VEC3"
        },
        {
            "bufferView" : 9,
            "componentType" : 5126,
            "count" : 60,
            "type" : "VEC3"
        },
        {
            "bufferView" : 10,
            "componentType" : 5126,
            "count" : 60,
            "type" : "VEC2"
        },
        {
            "bufferView" : 11,
            "componentType" : 5123,
            "count" : 90,
            "type" : "SCALAR"
        },
        {
            "bufferView" : 12,
            "componentType" : 5126,
            "count" : 21,
            "max" : [
                0.875
            ],
            "min" : [
                0.041666666666666664
            ],
            "type" : "SCALAR"
        },
        {
            "bufferView" : 13,
            "componentType" : 5126,
            "count" : 21,
            "type" : "VEC3"
        }
    ],
    "bufferViews" : [
        {
            "buffer" : 0,
            "byteLength" : 1176,
            "byteOffset" : 0
        },
        {
            "buffer" : 0,
            "byteLength" : 1176,
            "byteOffset" : 1176
        },
        {
            "buffer" : 0,
            "byteLength" : 784,
            "byteOffset" : 2352
        },
        {
            "buffer" : 0,
            "byteLength" : 324,
            "byteOffset" : 3136
        },
        {
            "buffer" : 0,
            "byteLength" : 96,
            "byteOffset" : 3460
        },
        {
            "buffer" : 0,
            "byteLength" : 96,
            "byteOffset" : 3556
        },
        {
            "buffer" : 0,
            "byteLength" : 64,
            "byteOffset" : 3652
        },
        {
            "buffer" : 0,
            "byteLength" : 24,
            "byteOffset" : 3716
        },
        {
            "buffer" : 0,
            "byteLength" : 720,
            "byteOffset" : 3740
        },
        {
            "buffer" : 0,
            "byteLength" : 720,
            "byteOffset" : 4460
        },
        {
            "buffer" : 0,
            "byteLength" : 480,
            "byteOffset" : 5180
        },
        {
            "buffer" : 0,
            "byteLength" : 180,
            "byteOffset" : 5660
        },
        {
            "buffer" : 0,
            "byteLength" : 84,
            "byteOffset" : 5840
        },
        {
            "buffer" : 0,
            "byteLength" : 252,
            "byteOffset" : 5924
        }
    ],
    "buffers" : [
        {
            "byteLength" : 6176,
            "uri" : "data:application/octet-stream;base64,"
        }
    ]
}
